<svg xmlns="http://www.w3.org/2000/svg" viewBox="0 0 128 128" role="img" aria-label="creative lotus flower petal radial center reference">
  <circle cx="64" cy="66" r="10" fill="#fef3c7" stroke="#0f172a" stroke-width="4"/>
  <path d="M64 16 C78 36 78 50 64 60 C50 50 50 36 64 16Z" fill="#fecdd3" stroke="#0f172a" stroke-width="4"/>
  <path d="M34 36 C56 42 62 52 58 66 C44 62 34 54 34 36Z" fill="#fbcfe8" stroke="#0f172a" stroke-width="4"/>
  <path d="M94 36 C72 42 66 52 70 66 C84 62 94 54 94 36Z" fill="#fbcfe8" stroke="#0f172a" stroke-width="4"/>
  <path d="M24 82 C46 68 56 72 62 88 C46 98 34 96 24 82Z" fill="#fecdd3" stroke="#0f172a" stroke-width="4"/>
  <path d="M104 82 C82 68 72 72 66 88 C82 98 94 96 104 82Z" fill="#fecdd3" stroke="#0f172a" stroke-width="4"/>
</svg>
